<svg version="1.1" id="Layer_1" xmlns="http://www.w3.org/2000/svg" xmlns:xlink="http://www.w3.org/1999/xlink" width="100%" viewBox="0 0 768 656" xml:space="preserve">
<path fill="currentColor" opacity="1.000000" stroke="none"
	d="
M272.000122,190.858643 
	C289.827728,190.864578 307.157043,191.002640 324.481842,190.783752 
	C328.777496,190.729492 331.515778,191.990616 333.971710,195.596817 
	C354.316620,225.470322 374.832062,255.227768 395.322540,285.001984 
	C396.802704,287.152771 397.926544,289.642456 400.721405,291.305359 
	C409.550903,281.108856 418.379852,270.959778 427.157684,260.766693 
	C446.394531,238.428345 465.605957,216.068100 484.825592,193.714920 
	C485.809753,192.570358 486.783813,191.228790 488.374451,191.139114 
	C495.787140,190.721313 503.199402,190.657806 510.475830,191.157486 
	C511.224060,194.056580 509.388000,195.094376 508.279022,196.384781 
	C477.130219,232.628799 445.979309,268.871155 414.723297,305.022583 
	C412.271240,307.858643 412.400574,309.920288 414.431854,312.862823 
	C444.048889,355.766846 473.572418,398.735413 503.116302,441.689972 
	C508.307526,449.237610 513.502686,456.782623 518.659180,464.353943 
	C519.282166,465.268707 519.673706,466.341064 520.142090,467.279388 
	C518.567017,468.947632 516.801147,468.384796 515.234131,468.388367 
	C491.075806,468.443512 466.916962,468.382904 442.759430,468.537048 
	C439.738586,468.556305 438.285980,467.148529 436.795380,464.974030 
	C416.641693,435.573212 396.447723,406.199982 376.249695,376.829559 
	C372.974365,372.066803 369.631378,367.350555 365.941650,362.072021 
	C360.609467,368.142822 355.651550,373.678223 350.812256,379.315460 
	C325.976318,408.246368 301.170074,437.202789 276.358307,466.154449 
	C275.486847,467.171234 274.674072,468.412323 273.220490,468.424133 
	C265.627869,468.485870 258.034454,468.452972 250.562195,468.452972 
	C250.073242,465.663177 251.654678,464.688812 252.684494,463.491547 
	C285.484741,425.358948 318.276337,387.218750 351.179871,349.175385 
	C353.727417,346.229889 353.760284,344.114319 351.578217,340.954315 
	C320.535858,295.999603 289.601654,250.970215 258.665558,205.942215 
	C255.607040,201.490509 252.707352,196.929703 249.733963,192.419525 
	C249.936020,191.899338 250.138077,191.379135 250.340134,190.858948 
	C257.393494,190.858948 264.446838,190.858948 272.000122,190.858643 
M465.509705,449.980865 
	C471.893555,449.980865 478.277435,449.980865 485.794861,449.980865 
	C483.499878,446.485779 482.026794,444.112976 480.428802,441.827484 
	C430.121033,369.876923 379.498260,298.142914 329.791656,225.779556 
	C321.830719,214.189926 313.939697,207.648132 299.733582,210.250168 
	C294.955200,211.125381 289.904816,209.668350 284.487823,210.999527 
	C285.600983,212.830185 286.372986,214.271393 287.303223,215.601959 
	C293.603394,224.613220 299.958069,233.586365 306.256317,242.598969 
	C352.061981,308.145416 398.021393,373.585815 443.449219,439.393158 
	C449.052521,447.510132 454.835327,451.706085 465.509705,449.980865 
z"/>
</svg>